<?xml version="1.0" encoding="utf-8"?>
<!-- Generator: Adobe Illustrator 25.2.1, SVG Export Plug-In . SVG Version: 6.00 Build 0)  -->
<svg version="1.1" id="Layer_1" xmlns="http://www.w3.org/2000/svg" xmlns:xlink="http://www.w3.org/1999/xlink" x="0px" y="0px"
	 viewBox="0 0 105.2 51.8" style="enable-background:new 0 0 105.2 51.8;" xml:space="preserve">
<style type="text/css">
	.st0{fill:#425366;}
	.st1{fill:#AFB9C3;}
	.st2{fill:#FAFBFB;}
	.st3{fill:#EBECED;}
	.st4{fill:#D3DCE0;}
</style>
<path class="st0" d="M2.1,46.2c-1.6-2.1-2.3-4.7-2-7.2c0.2-4.1,0.5-8.1,0.3-12.2C0.1,19,1.8,11.6,3.6,4.2c0.5-2.7,3-4.4,5.7-4.1
	c11,1,22.1,1,33.1,0c3-0.3,4.9,1.5,5.8,4.3c3.7,12.1,2.8,24.5,3.3,36.8c0,1.2-0.3,2.3-0.8,3.4c-2.4,2.9-5.5,3.2-9.1,3.2
	c-11-0.2-22-0.1-33.1,0C6.2,47.9,4,47.3,2.1,46.2z M4.1,12.3C3.2,14,2.8,16,2.8,18C2.5,25.3,2.3,32.7,2.1,40c0,1.7,0.1,3.3,1.8,4.3
	c0.8,1.2,2.1,1.1,3.4,1.2c1.9,0,3.8,0,5.7,0c10.4,0,20.7,0,31.1,0c3.1,0,3.5-0.3,4.3-2.7l0,0c0.7,0.2,0.9-0.4,0.9-0.8
	c0.1-1.2,0.1-2.5,0.1-3.7c-0.6-10.7,0.3-21.6-2.8-32.1c-1-3.4-1.6-4.2-5.1-3.9c-0.9,0.1-1.8,0.3-2.7,0.4c-0.5-0.2-1-0.1-1.4,0.2
	c-1-0.2-2-0.2-3,0.2h-18c-2.5-0.5-5-0.7-7.6-0.8C7.3,2.1,6.1,3,5.8,4.4C5.2,7,4.3,9.5,4.1,12.3L4.1,12.3z"/>
<path class="st0" d="M55.4,45.9c-1.3-2.2-1.9-4.8-1.6-7.4c0.3-6.7,0.4-13.5,0.7-20.2c0.2-5.2,1.9-10.1,3.2-15.1
	C58.3,0.8,60.5-0.2,63,0c11,1,22.1,1,33.1,0c3-0.3,5,1.3,5.8,4.4c1.7,6.9,3.2,13.7,2.9,20.9c-0.1,3.6,0.1,7.1,0.2,10.7
	c0.1,3.2,0.5,6.3-1.1,9.2c-1.7,1.7-4.1,2.6-6.5,2.5c-11.7-0.1-23.4-0.1-35.2,0C59.8,47.9,57.4,47.2,55.4,45.9z M102.5,42.8l0.4-1.1
	c0.4-0.6,0.4-1.4,0-2c-0.1-3-0.2-6-0.3-9c-0.1-5-0.1-10-0.4-15c0-1.7-0.5-3.4-1.3-5l-0.2-1.5c0.2-0.4,0-0.8-0.3-1
	c-1-6.3-1.1-6.5-7.4-5.9c-9.5,0.8-19.1,0.8-28.6-0.1c-4.1-0.4-4.6,0.1-5.3,4c-0.3,0.2-0.5,0.6-0.3,1l-0.2,1.5
	c-0.4,0.4-0.6,1-0.4,1.5l-0.5,2.5c-0.8,1.3-1.2,2.8-1.2,4.3c-0.3,7.8-0.6,15.5-0.8,23.3c0,1.6,0.2,3.2,1.8,4
	c0.3,0.5,0.9,0.9,1.6,0.9c0.6,0.4,1.2,0.5,1.9,0.4c12.3,0,24.7,0,37,0c1.2,0,2.5,0,3.4-1.1l0.3-0.6
	C102.2,43.9,102.6,43.5,102.5,42.8L102.5,42.8z"/>
<path class="st1" d="M2.1,46.2c1.9,1.1,4.2,1.6,6.4,1.5c11-0.1,22.1-0.2,33.1,0c3.5,0.1,6.7-0.3,9.1-3.2c-0.1,1.5-0.2,3-0.4,4.4
	c-0.2,1-0.9,1.8-1.9,2.2c-1,0.4-2.1,0.6-3.2,0.6c-12.7,0-25.4,0-38.1,0c-1.3,0-2.5-0.3-3.6-0.8C1.2,50,0.8,48.5,2.1,46.2z"/>
<path class="st1" d="M55.4,45.9c2,1.3,4.4,1.9,6.8,1.8c11.7-0.1,23.4-0.1,35.2,0c2.4,0.1,4.8-0.7,6.5-2.5c1.1,4-0.6,6.4-4.8,6.5
	c-6.3,0.1-12.6,0-18.9,0c-6.7,0-13.4,0-20.1,0C55.9,51.7,54.5,49.9,55.4,45.9z"/>
<path class="st2" d="M25.3,22.6c0-0.9-0.7-0.8-1.2-0.9c-2,0-4,0-6,0c-0.6,0-1.6,0.2-1.7-0.7c-0.2-2.7-1.6-1.5-2.8-1
	s-2.6,1.1-3.9,1.6c-0.5,0.2-1.1,0.2-1,0.9c0,0.5,0.4,0.6,0.8,0.8c1.5,0.6,3,1.4,4.5,2c0.7,0.3,2,0.6,2.1-0.4c0.3-2,1.6-1.5,2.8-1.5
	c1.6,0,3.3,0,5,0C24.4,23.3,25.1,23.4,25.3,22.6z"/>
<path class="st3" d="M2.8,18c0.1-2,0.5-3.9,1.4-5.7c1.2,0.5,1.6,1.3,0.8,2.5c-1.2,2.5-0.3,5.2-0.7,7.8s0.3,4.9,2.6,6.5
	c0,0.2,0,0.5,0,0.7c-1.7,0.4-1.8,2-1.8,3.2c-0.1,3.3-1.1,6.6-0.6,9.9l-0.6,1.4c-1.7-1-1.8-2.6-1.8-4.3"/>
<path class="st2" d="M37.3,2.8c-1.1,2-1.7,2.1-3,0.2C35.3,2.6,36.3,2.6,37.3,2.8z"/>
<path class="st4" d="M60.5,28.9l-0.5,0.9c-0.8,1-1.2,2.2-1.2,3.4c-0.1,2.9-1.7,5.8-0.3,8.8c0,1-1.2,1.4-1.1,2.4
	c-1.6-0.9-1.8-2.5-1.8-4c0.2-7.8,0.4-15.5,0.8-23.3c0-1.5,0.4-2.9,1.1-4.2c1.8,0.5,1.7,1.7,1,3c-1.1,2.3-0.3,4.8-0.6,7.2
	C57.5,25.4,58.5,27.7,60.5,28.9z"/>
<path class="st4" d="M59,45.2c0.9-0.7,1.9-0.4,2.9-0.4c10.1,0,20.3,0,30.4,0c3,0.1,6,0,8.9-0.3c-0.8,1.2-2.1,1.2-3.4,1.2
	c-12.3,0-24.7,0-37,0C60.2,45.8,59.6,45.6,59,45.2z"/>
<path class="st4" d="M100,19.9c-0.1-3.1-0.4-6.1,0.9-9.1c0.8,1.5,1.3,3.2,1.3,5c0.3,5,0.3,10,0.4,15c-1.1-0.5-0.6-1.5-0.7-2.3
	s0.3-1.9-0.6-2.7C100.8,23.8,101.8,21.5,100,19.9z"/>
<path class="st2" d="M101.4,25.8c0.8,0.8,0.4,1.8,0.6,2.7s-0.3,1.8,0.7,2.3c0.1,3,0.2,6,0.3,9c-0.6,0.4-0.6,1.2-0.2,1.8
	c0.1,0.1,0.1,0.1,0.2,0.2l-0.4,1.1c-0.7-3-1.3-6-1.6-9.1c-0.2-1.6,0.4-3.7-2-4.5L98.5,29C99.6,28.1,101,27.4,101.4,25.8z"/>
<path class="st4" d="M98.9,29.3c2.3,0.7,1.8,2.9,2,4.5c0.3,3.1,0.9,6.1,1.6,9.1c0,0.7-0.3,1-1,1c-0.9-0.7-1.4-1.7-1.5-2.8
	C100.2,37.1,98.5,33.3,98.9,29.3z"/>
<path class="st4" d="M100.7,9.4c-0.6-0.2-0.9-0.5-0.3-1C100.7,8.6,100.9,9,100.7,9.4z"/>
<path class="st1" d="M6.9,29.1c-2.3-1.6-3-3.8-2.6-6.5s-0.5-5.3,0.7-7.8c-0.1,3.2,0,6.5,0.3,9.7c0.2,1.9,1.3,3.1,3.2,3.3
	c5.9,0.4,11.9,1.4,17.9,0.8h7c0.8,0.2,1.7,0.2,2.5-0.2l2.5-0.4c1.6,0,3.2,0,4.7-0.1s3.1-0.8,3.3-2.8c0.1-1.1,0-2.2,0-3.2
	c0-2.4,0.1-4.8,0.1-7.3c1.6,1.2,0.8,3.2,1.3,4.7c0.1,1,0.2,2,0.1,3c0.4,5.6-1.2,7.1-7.1,7.4c-9.9,0.6-19.9,0.4-29.9,0
	C9.5,29.6,8.2,29.4,6.9,29.1z"/>
<path class="st2" d="M35.8,28.3c-0.8,0.4-1.7,0.5-2.5,0.2C34.1,27.4,34.9,27.6,35.8,28.3z"/>
<path class="st4" d="M48.3,42.8c-1.2,0-1.5-0.8-1.6-1.8c-0.4-3.3-0.8-6.7-1.2-10c0-0.4-0.2-0.9,0.3-1c0.7-0.2,0.8,0.4,0.9,0.9
	C47.3,34.9,47.8,38.9,48.3,42.8L48.3,42.8z"/>
<path class="st4" d="M4.4,42.9C3.9,39.6,4.9,36.3,5,33c0-1.2,0.1-2.8,1.8-3.2c-1,3.4-0.7,7-1.5,10.4C5.3,41.2,5,42.1,4.4,42.9z"/>
<path class="st0" d="M25.3,22.6c-0.2,0.8-0.8,0.7-1.4,0.7c-1.6,0-3.3,0-5,0c-1.1,0-2.5-0.5-2.8,1.5c-0.2,1-1.4,0.7-2.1,0.4
	c-1.5-0.6-3-1.3-4.5-2c-0.4-0.2-0.8-0.3-0.8-0.8c0-0.7,0.6-0.7,1-0.9c1.3-0.5,2.6-1.1,3.9-1.6s2.7-1.7,2.8,1c0,0.8,1,0.7,1.7,0.7
	c2,0,4,0,6,0C24.6,21.8,25.2,21.8,25.3,22.6z"/>
<path class="st1" d="M101.4,25.8c-0.4,1.6-1.8,2.3-2.9,3.2h-1c-0.8-0.2-1.1,0.2-1.5,0.8c-9.8,0.2-19.7,0.8-29.5,0
	c-1.3-0.1-2.6-0.3-3.9-0.4c-0.2-0.4-0.7-0.5-1.1-0.3l-0.9-0.1c-2-1.2-3.1-3.5-2.6-5.8c0.3-2.4-0.5-4.9,0.6-7.2l0.2,7.4
	c-0.3,0.7-0.2,1.5,0.3,2.1c0.5,1.5,1.8,2.5,3.4,2.5c11.4,1.2,22.8,1.2,34.2,0c2.2-0.2,3.5-1.2,3.4-3.7c-0.1-1.4,0-2.8,0.1-4.2
	C101.8,21.5,100.8,23.8,101.4,25.8z"/>
<path class="st0" d="M66.6,21.8c1.1,0,2.2,0,3.2,0c0.8,0,1.4-0.2,1.5-1.2c0-1.4,0.9-1.3,1.9-0.9c1.7,0.7,3.3,1.4,5,2.1
	c0.4,0.2,0.8,0.3,0.8,0.8s-0.4,0.6-0.8,0.8c-1.4,0.5-2.8,1.1-4.1,1.7s-2.7,1.6-2.9-1c-0.1-0.9-1.1-0.6-1.7-0.6c-1.9,0-3.8,0-5.7,0
	c-0.6,0-1.3,0.1-1.3-0.7c-0.1-1,0.8-0.8,1.4-0.9C64.7,21.7,65.7,21.8,66.6,21.8z"/>
<path class="st4" d="M59,25.3c-0.5-0.6-0.6-1.4-0.3-2.1c0.6,0.3,0.9,1,0.6,1.7C59.3,25,59.1,25.2,59,25.3z"/>
<path class="st1" d="M58.6,42c-1.4-3,0.2-5.8,0.3-8.8c0-1.2,0.4-2.5,1.2-3.4c0,1,0,2-0.1,3c-0.7,0.5-0.5,1.3-0.5,2
	c-0.1,1.5-0.1,2.9-0.2,4.4c-1,0.5-0.8,1.4-0.7,2.2L58.6,42z"/>
<path class="st2" d="M95.9,29.8c0.3-0.6,0.7-1.1,1.5-0.8C97.2,29.8,96.6,29.8,95.9,29.8z"/>
</svg>
