<svg id="Capa_1" enable-background="new 0 0 511.962 511.962" height="512" viewBox="0 0 511.962 511.962" width="512" xmlns="http://www.w3.org/2000/svg"><g><g id="Duck_toy_3_"><g><g><path d="m85.17 180.05h-10.17c-41.355 0-75-33.645-75-75 0-8.284 6.716-15 15-15h61.07c4.354 0 8.493 1.892 11.342 5.184s4.127 7.66 3.502 11.969c-.606 4.187-.914 8.509-.914 12.847 0 13.494 2.928 26.457 8.702 38.527 2.223 4.648 1.905 10.111-.841 14.47-2.747 4.359-7.539 7.003-12.691 7.003z" fill="#ff9100"/></g></g><g><g><g><g><path d="m511.96 291.78c-.25-58.7-23.57-102.96-54.26-102.96-14.18 0-29.47 8.39-48.82 19.02-23.68 13.01-53.15 29.19-82.94 29.19-30.12 0-55.41-15.25-65.99-27.77 25.29-22.66 40.05-55.12 40.05-89.21 0-1-.01-2.04-.04-3.09-.92-36.1-17.86-68.29-43.96-89.7-20.71-17-47.19-27.21-76-27.21-29.06 0-57.1 10.52-78.95 29.63-21.64 18.91-35.78 44.93-39.82 73.22-.82 5.61-1.23 11.38-1.23 17.15 0 18.01 3.92 35.33 11.63 51.46 3.63 7.6 8.03 14.77 13.14 21.42-23.23 19.86-39.85 44.91-49.48 74.68-5.89 18.17-8.86 37.4-8.84 57.17v.45c0 45.39 17.98 87.22 52 120.95 17.943 17.792 76.743 68.773 177.55 65.59 44.21-1.23 83.73-8.46 117.59-21.51 32.82-12.64 60.6-30.82 82.57-54.01 48.86-51.611 55.93-112.67 55.8-144.47z" fill="#fed843"/></g></g></g></g><g><circle cx="135" cy="105.046" fill="#596c76" r="15"/></g><g><g><g><g><path d="m346.61 366.58-13.07-6.53 13.07-6.54c3.61-1.8 6.34-4.99 7.58-8.83 1.23-3.85.86-8.03-1.02-11.6-15.31-28.96-53.39-47.74-97.17-48.03h-1c-26.97 0-52.52 7.13-71.96 20.09-21.31 14.2-33.04 33.7-33.04 54.91 0 21.2 11.73 40.7 33.04 54.9 19.44 12.96 44.99 20.1 71.96 20.1h1c43.78-.29 81.86-19.08 97.17-48.04 1.88-3.57 2.25-7.75 1.02-11.59-1.24-3.85-3.97-7.031-7.58-8.84z" fill="#fabe2c"/></g></g></g></g></g><g id="Duck_toy_2_"><g><g><path d="m456.16 436.25c-21.97 23.19-49.75 41.37-82.57 54.01-33.86 13.05-73.38 20.28-117.59 21.51v-484.51c26.1 21.41 43.04 53.6 43.96 89.7.03 1.05.04 2.09.04 3.09 0 34.09-14.76 66.55-40.05 89.21 10.58 12.52 35.87 27.77 65.99 27.77 29.79 0 59.26-16.18 82.94-29.19 19.35-10.63 34.64-19.02 48.82-19.02 30.69 0 54.01 44.26 54.26 102.96.13 31.8-6.94 92.859-55.8 144.47z" fill="#fabe2c"/></g></g></g><path d="m354.19 375.42c1.23 3.84.86 8.02-1.02 11.59-15.31 28.96-53.39 47.75-97.17 48.04v-150c43.78.29 81.86 19.07 97.17 48.03 1.88 3.57 2.25 7.75 1.02 11.6-1.24 3.84-3.97 7.03-7.58 8.83l-13.07 6.54 13.07 6.53c3.61 1.809 6.34 4.99 7.58 8.84z" fill="#ff9100"/></g></svg>