<svg xmlns="http://www.w3.org/2000/svg" viewBox="0 0 158.83 88.73"><defs><style>.cls-1{fill:#425366;}.cls-2{fill:#afb9c3;}.cls-3{fill:#d3dce0;}.cls-4{fill:#fafbfb;}.cls-5{fill:#fefefe;}.cls-6{fill:#ebeced;}</style></defs><g id="Layer_2" data-name="Layer 2"><g id="Layer_1-2" data-name="Layer 1"><path class="cls-1" d="M54.92,82.17a11.54,11.54,0,0,1-1.32-6.48c.28-7,.41-14,.65-20.95a21.05,21.05,0,0,1,.43-2.94c.51-2.82,1.51-5.61-.55-8.32-.69-.91-.59-2.22-.55-3.4.22-7.56.21-15.14.74-22.69.35-4.87,1.87-9.61,3.26-14.3.76-2.54,3.11-3.3,5.67-3A150.52,150.52,0,0,0,82.94.74C87.09.61,91.24.28,95.39.05,99.31-.17,100.9,1.22,102,5c3.35,11.86,2.72,24.05,3.1,36.16a3.86,3.86,0,0,1-.42,2.17c-1.66,2.56-1,5.2-.68,7.94.91,6.85.79,13.77,1,20.67.09,3.36.83,6.83-.94,10-2,2.12-4.52,2.76-7.44,2.73q-17.3-.15-34.61,0A9.29,9.29,0,0,1,54.92,82.17ZM97.3,2.33a2.23,2.23,0,0,0-2.51.06l-3,.15a16.66,16.66,0,0,0-6,.4,1.94,1.94,0,0,0-1.51.14l-12-.16a10.07,10.07,0,0,0-4.53-.33l-4-.21a2,2,0,0,0-2.49,0A2.06,2.06,0,0,0,59.46,4.1c-1,4.34-2.52,8.64-2.9,13-.65,7.49-.6,15-.82,22.58a4.46,4.46,0,0,0,.55,3.18c1.24-1.33,1-3.09,1.9-4.33l1.15-.91a10.75,10.75,0,0,1,5.34-.53,159.84,159.84,0,0,0,29.51,0,10.55,10.55,0,0,1,5.57.64c1.77,1.15,1.45,3.48,2.62,5a3.34,3.34,0,0,0,.73-2.73c-.23-7.56-.44-15.12-.73-22.68a10.37,10.37,0,0,0-1.17-5c0-2.05-.8-4-1.17-6a.81.81,0,0,0-.36-1C99.6,3.82,99.12,2.55,97.3,2.33Zm2.38,40a2.43,2.43,0,0,0-.77-2.1,1.12,1.12,0,0,0-1.13-.91,17.56,17.56,0,0,0-6.58.28l-14.88.43-13.66-.93a2.78,2.78,0,0,0-3.23,2.12c-1,4.19-2.52,8.35-2.87,12.6-.64,7.86-.62,15.77-.83,23.66-.07,2.49,1,4.27,3.62,4.74a3.08,3.08,0,0,0,1.93.32H97.35a3.08,3.08,0,0,0,1.93-.32,2.14,2.14,0,0,0,2-1c1.75-1,1.84-2.64,1.79-4.31q-.25-10.59-.6-21.17a14.45,14.45,0,0,0-1.28-6.5L101,47.86a4.94,4.94,0,0,0-.68-3l-.16-1A1.39,1.39,0,0,0,99.68,42.35Z"/><path class="cls-1" d="M108.46,82a9.36,9.36,0,0,1-1.16-5.27c.26-7.56.23-15.13.76-22.67.33-4.79,1.8-9.46,3.2-14.06.7-2.32,2.81-3.26,5.17-3a186,186,0,0,0,33.37,0,4.87,4.87,0,0,1,5.48,4c1.42,6,3.05,11.88,3,18.13-.07,5.65.29,11.3.56,16.94a11.14,11.14,0,0,1-1.27,6,9,9,0,0,1-7,2.59q-17.7-.15-35.41,0A8.35,8.35,0,0,1,108.46,82Zm48.06-7.21a40.37,40.37,0,0,0-.37-9.51,82.15,82.15,0,0,0-.34-9.92c.57-2.51-.36-4.77-1.14-7.06l-.53-2.5c-.29-1.44-.51-2.9-.88-4.32a2.72,2.72,0,0,0-2.78-2.34,19.84,19.84,0,0,0-5.84.55l-9.92.36a3,3,0,0,0-2,0,12.33,12.33,0,0,0-4,0l-7.94-.62c-7.69-.59-7.83-.46-8.92,7.41a.79.79,0,0,0-.34,1l-.23,1.46a9.88,9.88,0,0,0-1.31,5c-.3,7.7-.5,15.4-.67,23.09-.05,1.89.38,3.64,2.45,4.42a1.63,1.63,0,0,0,1.51.47,7.33,7.33,0,0,0,1.44.28q17.78,0,35.57,0a8.07,8.07,0,0,0,1.44-.26c1.14.11,2.26.13,3.08-.88a2.64,2.64,0,0,0,1.71-3Z"/><path class="cls-1" d="M1.15,82A9.78,9.78,0,0,1,0,76.48C.27,69.25.31,62,.71,54.8,1,49.73,2.56,44.85,4,40c.68-2.33,2.84-3.31,5.93-3a164.71,164.71,0,0,0,21.42.58c3.4-.07,6.8-.38,10.19-.61,3.92-.26,5.75,1,6.68,4.73,1.64,6.61,3,13.26,2.86,20.16-.09,4.73.2,9.47.44,14.2a11.46,11.46,0,0,1-1.25,6,9.53,9.53,0,0,1-7,2.58q-17.45-.15-34.89,0A9.35,9.35,0,0,1,1.15,82ZM3.34,51.71l-.26,1.14c-.92,2.78-.52,5.64-.47,8.48l-.15,8.45A38.16,38.16,0,0,0,2,78.32a2.53,2.53,0,0,0,1.25,2.49,2.83,2.83,0,0,0,2.66,1.45,3,3,0,0,0,1.93.31H43.45a3.08,3.08,0,0,0,1.93-.29l1-.15a1,1,0,0,0,1.17-.7l0,0c1.9-1,2-2.72,1.9-4.5-.22-7.57-.4-15.14-.71-22.7a18,18,0,0,0-1.58-6.72v-.12l-.11-.07a4.43,4.43,0,0,0-.39-2.43.87.87,0,0,0-.3-1l-.23-1.46A1.19,1.19,0,0,0,45.67,41a2.31,2.31,0,0,0-2.55-1.83,20.61,20.61,0,0,0-5.8.53,1.41,1.41,0,0,0-1.43.13,6.72,6.72,0,0,0-3.5.17l-11,.06-7.61-.6c-8-.67-8.09-.62-9.3,7.39a.83.83,0,0,0-.31,1L4,49.31A2.9,2.9,0,0,0,3.34,51.71Z"/><path class="cls-2" d="M1.15,82a9.35,9.35,0,0,0,7.2,2.67q17.45-.17,34.89,0a9.53,9.53,0,0,0,7-2.58c0,.66.11,1.32.11,2,0,3.17-1.27,4.61-4.41,4.62q-19.77.06-39.54,0C1.73,88.68.59,87.12,1.15,82Z"/><path class="cls-2" d="M54.92,82.17a9.29,9.29,0,0,0,7,2.5q17.31-.14,34.61,0c2.92,0,5.4-.61,7.44-2.73.85,5.34-.38,6.78-5.82,6.78-12.35,0-24.7,0-37.05,0C56.27,88.74,54.21,87.85,54.92,82.17Z"/><path class="cls-2" d="M108.46,82a8.35,8.35,0,0,0,6.69,2.66q17.7-.14,35.41,0a9,9,0,0,0,7-2.59c.46,5.38-.69,6.63-6.16,6.64q-18.45,0-36.9,0C109.51,88.71,107.91,86.91,108.46,82Z"/><path class="cls-3" d="M98.79,65.72c.18-.47.69-.85.46-1.45l0,0c1.33.09,1.73-.94,1.83-1.87a15.18,15.18,0,0,0-.87-7.09c.08-2-.64-4.19,1-6a14.45,14.45,0,0,1,1.28,6.5q.36,10.57.6,21.17c0,1.67,0,3.35-1.79,4.31l0-1.54a2,2,0,0,0-1-3"/><path class="cls-3" d="M99.76,37.76c-.18-.93-.73-1.86,0-2.81,1-1.17.58-2.55.43-3.8-.09-.72-.53.13-.83.17-.81-.58-.39-1.72-1.07-2.36,1-1.11,2.76-1.72,2.91-3.46a18.87,18.87,0,0,0-.9-8.16c.23-1.66-.73-3.56.94-5a10.37,10.37,0,0,1,1.17,5c.29,7.56.5,15.12.73,22.68a3.34,3.34,0,0,1-.73,2.73C101.21,41.24,101.53,38.91,99.76,37.76Z"/><path class="cls-3" d="M59.35,82.24c.7-.66,1.57-.45,2.38-.45q17.59,0,35.18,0c.81,0,1.68-.22,2.37.46a3.08,3.08,0,0,1-1.93.32H61.28A3.08,3.08,0,0,1,59.35,82.24Z"/><path class="cls-2" d="M58.19,38.57c-.69-2.7.88-5.2.72-7.85A.64.64,0,0,1,59.7,30c.57.13.37.59.33,1-.24,2.22-.46,4.44-.69,6.66Z"/><path class="cls-3" d="M112.79,58.79c-.13.5-.27,1-.4,1.5-1.65,1.17-1.55,2.16.39,4l.06,0c0,.92,1.1,1,1.44,1.68-.35,3.33-.94,6.67-1,10,0,2.18-1.59,3.78-1.57,5.88-2.07-.78-2.5-2.53-2.45-4.42.17-7.69.37-15.39.67-23.09a9.88,9.88,0,0,1,1.31-5"/><path class="cls-3" d="M113.25,82.26c.68-.69,1.55-.48,2.35-.48q16.89,0,33.77,0c.8,0,1.67-.2,2.33.52a8.07,8.07,0,0,1-1.44.26q-17.79,0-35.57,0A7.33,7.33,0,0,1,113.25,82.26Z"/><path class="cls-3" d="M154.78,81.42c-1.78-5-1.78-10.38-2.6-15.58a1.67,1.67,0,0,1,1.28-.69,33.35,33.35,0,0,1,1.74,11.21c0,1,.09,1.86,1.29,2.06A2.64,2.64,0,0,1,154.78,81.42Z"/><path class="cls-4" d="M156.49,78.42c-1.2-.2-1.26-1.09-1.29-2.06a33.6,33.6,0,0,0-1.73-11.21,6.09,6.09,0,0,0,1.71-4.93c-.11-1.64,0-3.28-.05-4.92l.68.07a82.15,82.15,0,0,1,.34,9.92c-1,2-.34,4.06-.4,6.09,0,1.14-.58,2.53.77,3.42Z"/><path class="cls-4" d="M154.14,45.81a5.51,5.51,0,0,1-2.36-2.92c-1.15-2.4-2.89-2.7-5.09-2.58a2.13,2.13,0,0,1-2.05-.61,19.84,19.84,0,0,1,5.84-.55,2.72,2.72,0,0,1,2.78,2.34C153.63,42.91,153.85,44.37,154.14,45.81Z"/><path class="cls-2" d="M155.81,55.37l-.68-.07-1.42,0c0-2.38-.52-4.83,1-7C155.45,50.6,156.38,52.86,155.81,55.37Z"/><path class="cls-3" d="M156.52,74.8c-1.35-.89-.81-2.28-.77-3.42.06-2-.57-4.12.4-6.09A40.37,40.37,0,0,1,156.52,74.8Z"/><path class="cls-3" d="M47.54,81.4c-1.76-4-1.84-8.21-2.17-12.41-.08-1.07.15-2.18-.51-3.15.38-.32.77-.62,1.13-1,2.3-2.19,2.5-6.91.39-9.08l-.1-3a22.75,22.75,0,0,1,.87-5.31,18,18,0,0,1,1.58,6.72c.31,7.56.49,15.13.71,22.7C49.49,78.68,49.44,80.43,47.54,81.4Z"/><path class="cls-3" d="M5.94,82.26c.68-.68,1.55-.48,2.35-.48q17.37,0,34.74,0c.81,0,1.68-.2,2.35.49a3.08,3.08,0,0,1-1.93.29H7.87A3,3,0,0,1,5.94,82.26Z"/><path class="cls-2" d="M2.46,69.78c1,2,.25,4.21.45,6.32.09,1,0,2,0,3.06l.7,0c.28-2.56.66-5.11.8-7.68a22,22,0,0,1,.64-4.14c.1-.42.33-.83.79-.82s.63.47.62.9a46.52,46.52,0,0,1-1.54,12c-.24.83-1,1-1.65,1.38A2.53,2.53,0,0,1,2,78.32,38.16,38.16,0,0,1,2.46,69.78Z"/><path class="cls-2" d="M4,49.31c1.86,2.09.57,4.7,1.17,7a3.81,3.81,0,0,0-.15.44l-1,.55c-.35-1.84.61-3.83-.6-5.58A2.9,2.9,0,0,1,4,49.31Z"/><path class="cls-4" d="M35.89,39.81c0,.84-.22,1.47-1.22,1.49s-2,0-2.28-1.32A6.72,6.72,0,0,1,35.89,39.81Z"/><path class="cls-5" d="M3.34,51.71c1.21,1.75.25,3.74.6,5.58v1c-1.22-1.67.19-3.74-.85-5.43Z"/><path class="cls-1" d="M72.68,47c1.59,2,1.36,3.22-.84,4.22A8.2,8.2,0,0,1,62,48.87c1.1-.23,2.06-.42,3,.48,1.41,1.4,3.14,1.15,4.85.73.58-.14,1.13-.43,1.11-1.13s-.56-1-1.17-1.09c-1.47-.28-2.95-.49-4.41-.82-1.24-.28-2.57-.66-2.66-2.19s1.19-2.23,2.53-2.61a9.43,9.43,0,0,1,6.12.23c1,.39,2.3.83,1.59,2.44l-2-.12c-1-1.41-2.41-1.56-3.95-1.36a1,1,0,0,0-1.27.52c-.1,2.55,2.14,1.31,3.2,2a.7.7,0,0,0,1,.19l1,0A3,3,0,0,0,72.68,47Z"/><path class="cls-2" d="M99.25,64.27c.23.6-.28,1-.46,1.45L96.9,66a.87.87,0,0,0-1.11.31c-3.12.72-6.29.43-9.43.45-6.9,0-13.8.24-20.68-.14-7.31-.39-8.77-2.26-8.22-8.79l1.4-.09c0,6.66,0,6.66,6.57,7.07,1.14.08,2.27.19,3.41.29l2,.15c1.3.63,2.66.31,4,.24h8.49c1.51.07,3,.39,4.5-.24l3-.2C93.61,64.83,96.47,65,99.25,64.27Z"/><path class="cls-3" d="M57.53,78.27c0-3.57,1-7,1.29-10.54,0-.56,0-1.31.82-1.25s.69.76.61,1.35q-.68,5.24-1.37,10.49c-.07.56,0,1.31-.82,1.26S57.38,78.82,57.53,78.27Z"/><path class="cls-2" d="M58.86,57.78l-1.4.09a8.67,8.67,0,0,1,1.4-6Z"/><path class="cls-2" d="M70.85,44.79l2,.12c-.07.68-.14,1.36-.2,2a3,3,0,0,1-1.87-.85Z"/><path class="cls-1" d="M65.57,15.27c-.92-2.31-1.87-4.6-2.71-6.93-.23-.64-1.16-1.6.25-2a1.57,1.57,0,0,1,2.11,1.17c.53,1.63,1.19,3.22,1.86,5,1.49-1.35,1.72-3.14,2.4-4.68.45-1,.94-1.61,2.16-1.59s1.55.77,1.89,1.63c.62,1.52,1.23,3.05,1.92,4.79a16.36,16.36,0,0,0,2.19-4.93c.46-1.25,1.3-1.85,2.47-1.33s.15,1.41-.08,2.06c-.81,2.25-1.72,4.46-2.6,6.69l-1.11.68-1,0L74,15.31a23.77,23.77,0,0,0-2.57-6l-2.9,6.45-1.15.12-1,0Z"/><path class="cls-2" d="M94.87,29.38a181.07,181.07,0,0,1-32-.07c0-.46,0-.92,0-1.38a1.26,1.26,0,0,0,.43-.08l6.49.39A.83.83,0,0,0,71,28.5a135.07,135.07,0,0,0,17.19,0,.81.81,0,0,0,1.14-.26l4.51-.09C94.16,28.56,94.51,29,94.87,29.38Z"/><path class="cls-2" d="M60.36,28.82c-2.7-1.53-3.31-3.92-2.83-6.79.12-.73.14-1.47.2-2.21l1.12,0,.12,2c0,.34,0,.68,0,1s0,.66,0,1c-.43,2.35,1,3.34,2.92,3.94C61.81,28.74,61.16,28.89,60.36,28.82Z"/><path class="cls-2" d="M96.89,27.54c2.41-.26,3.41-1.62,3.32-4-.08-2.06,0-4.12.06-6.19a18.87,18.87,0,0,1,.9,8.16c-.15,1.74-1.88,2.35-2.91,3.46l-1.07.16a1.33,1.33,0,0,0-.43-1.29A1.51,1.51,0,0,0,96.89,27.54Z"/><path class="cls-2" d="M58.85,19.85l-1.12,0c-.76-1.6.18-3.07.4-4.59,0-.29.54-.08.79.13C58.9,16.86,58.87,18.36,58.85,19.85Z"/><path class="cls-2" d="M96.76,27.83a1.33,1.33,0,0,1,.43,1.29l-2.33.26-1-1.24A6.17,6.17,0,0,1,96.76,27.83Z"/><path class="cls-4" d="M66.34,15.83l1,0c-.07.31-.1.71-.52.69S66.39,16.14,66.34,15.83Z"/><path class="cls-4" d="M75.32,15.86l1,0c-.06.32-.09.71-.49.72S75.38,16.17,75.32,15.86Z"/><path class="cls-4" d="M87.81,65.3c-1.47.63-3,.31-4.5.24C84.7,63.47,86.28,64.82,87.81,65.3Z"/><path class="cls-4" d="M74.82,65.53c-1.34.07-2.7.39-4-.24C72.2,64.64,73.56,64.26,74.82,65.53Z"/><path class="cls-2" d="M61.92,27.78l1,.15c0,.46,0,.92,0,1.38-.86,0-1.79.31-2.5-.49C61.16,28.89,61.81,28.74,61.92,27.78Z"/><path class="cls-2" d="M100.23,55.29a15.18,15.18,0,0,1,.87,7.09c-.1.93-.5,2-1.83,1.87C100.74,61.39,100.05,58.29,100.23,55.29Z"/><path class="cls-1" d="M119.25,51.81c-2.61.2-3-1.18-3-3.5.12-6.49,0-6.49,6.55-6.17,4.61.23,6.18,2,5.75,6.65v.13c-1.51,1.85-3.61,2.51-5.84,2.89A9.31,9.31,0,0,0,119.25,51.81Zm2-8.23c-1.37-.23-2.72.13-2.21,2.13.39,1.53-1.76,4.31,1.9,4.42,3.44.1,5.11-1,5.15-3.23S124.79,43.7,121.29,43.58Z"/><path class="cls-2" d="M153.71,55.32l1.42,0c0,1.64-.06,3.28.05,4.92a6.09,6.09,0,0,1-1.71,4.93,1.68,1.68,0,0,0-1.29.69c-2.26,1.07-4.66.9-7.07,1-7.89.24-15.77.39-23.65,0-1.41-.08-2.81-.24-4.22-.36-.58-.74-1.35-.55-2.1-.42l-.86-.1c-.34-.69-1.39-.76-1.44-1.68a42.24,42.24,0,0,0,7.86.7c.81.34,1.58,1,2.54.38a130,130,0,0,0,18.51.14,1.51,1.51,0,0,0,1.95-.17c1.87-.15,3.73-.34,5.6-.45,2.91-.16,3.85-1,4.06-4a9.07,9.07,0,0,0,.33-4.53Z"/><path class="cls-4" d="M122.74,51.81c2.23-.38,4.33-1,5.84-2.89.37,4.12-.42,4.92-4.19,4.38C123.44,53.16,122.85,52.79,122.74,51.81Z"/><path class="cls-2" d="M112.39,60.29c-.46,1.38.94,2.58.39,4C110.84,62.45,110.74,61.46,112.39,60.29Z"/><path class="cls-2" d="M3.93,58.28v-1l1-.55c0,.51.1,1,.14,1.54-.34,4.35.55,6.14,3.42,6.46,2.45.27,4.93.32,7.39.46l1,.06c1.45.68,3,.34,4.48.28h9c4.41.46,8.71-.75,13.09-.87,1.79,0,2.93-1.33,2.84-3.39-.07-1.82,0-3.64.05-5.46C48.49,58,48.29,62.7,46,64.89c-.36.33-.75.63-1.13,1L43.5,66c-.62-.16-1.2-.2-1.61.41-6.79.37-13.57,1.07-20.38.5-4.39-.37-8.81.34-13.17-.51A5.1,5.1,0,0,1,3.9,61.32Z"/><path class="cls-1" d="M19.42,51.72c-2.27-3.38-5.32-3.63-8.32-.64a1.72,1.72,0,0,1-2,.46c-.85-.43-.31-1.1,0-1.68,1.27-2.14,2.47-4.32,3.79-6.43s3.18-1.88,4.47.15l3.69,5.86a.32.32,0,0,0,.25.37c.16.35.31.7.46,1.06C21.32,52.09,20.22,51.48,19.42,51.72ZM15,47.82c.6-.22,1.79.43,1.66-.77-.1-1-.5-2.43-1.65-2.45-1,0-1.32,1.41-1.52,2.3C13.18,48.21,14.4,47.61,15,47.82Z"/><path class="cls-4" d="M15.31,61.31c-.34.17-.55.36-.71.32s-.25-.31-.37-.48c.13-.08.28-.25.4-.22A2.58,2.58,0,0,1,15.31,61.31Z"/><path class="cls-4" d="M21.76,50.87c-.15-.36-.3-.71-.46-1.06C22,49.93,22.6,50.08,21.76,50.87Z"/><path class="cls-4" d="M70.85,44.79l0,1.31-1,0c-.23-.55-.55-.72-1-.19-1.06-.67-3.3.57-3.2-2a.82.82,0,0,0,1.27-.52C68.44,43.23,69.86,43.38,70.85,44.79Z"/><path class="cls-2" d="M68.83,45.93c.44-.53.76-.36,1,.19A.7.7,0,0,1,68.83,45.93Z"/><path class="cls-2" d="M66.9,43.43a.82.82,0,0,1-1.27.52A1,1,0,0,1,66.9,43.43Z"/><path class="cls-6" d="M121.29,43.58c3.5.12,4.87,1.11,4.84,3.32s-1.71,3.33-5.15,3.23c-3.66-.11-1.51-2.89-1.9-4.42C118.57,43.71,119.92,43.35,121.29,43.58Z"/><path class="cls-3" d="M15,47.82c-.59-.21-1.81.39-1.51-.92.2-.89.53-2.32,1.52-2.3,1.15,0,1.55,1.47,1.65,2.45C16.78,48.25,15.59,47.6,15,47.82Z"/></g></g></svg>